<svg xmlns="http://www.w3.org/2000/svg" width="12" height="12"><path d="M11.864 3.017a.43.43 0 0 0-.327-.154H9.225V4.1c0 .563-.484 1.022-1.08 1.022S7.067 4.654 7.067 4.1V2.863H4.9V4.1c0 .563-.485 1.022-1.08 1.022S2.75 4.654 2.75 4.1V2.863H.438a.43.43 0 0 0-.327.154.47.47 0 0 0-.108.358L.78 10.5c.015.806.642 1.455 1.4 1.455h7.595c.77 0 1.396-.65 1.4-1.455l.776-7.134c.015-.13-.026-.26-.108-.358zM3.83 4.5c.24 0 .433-.184.433-.4V1.84c0-.632.672-1.022 1.295-1.022h1.08c.655 0 1.078.4 1.078 1.022V4.1c0 .225.194.4.43.4s.433-.184.433-.4V1.84C8.577.773 7.76 0 6.636 0h-1.08c-1.2 0-2.16.826-2.16 1.84V4.1c0 .225.194.4.43.4z"/></svg>