<svg xmlns="http://www.w3.org/2000/svg" width="136" height="164"><path d="M93.133 38.767c8.12 0 14.945-5.542 16.9-13.05l5.467.814c.107.016.215.024.32.024a2.16 2.16 0 0 0 2.131-1.84 2.16 2.16 0 0 0-1.816-2.451l-5.54-.825a3.59 3.59 0 0 0 .004-.138c0-.182-.006-.362-.014-.542 0 0-.45-6.518-1.074-9.237s-2.535-3.296-2.535-3.296C97.205 6.015 87.203 5.8 84.6 5.8s-3.158 1.33-3.158 1.33l-3.15 4.996-.01-.003c-.076.122-.146.245-.22.368l-.027.043c-1.502 2.58-2.367 5.576-2.367 8.777-.001 9.646 7.82 17.465 17.464 17.465zm38.402 39.3v-.002l-26.742-2.168-9.246-21.112s-.46-2.774-6.008-8.476-16.8-3.4-16.8-3.4l-31.745 6.318c-7.86 1.85-8.168 9.863-8.168 9.863l-.632 4.52-15.178-2.94a2.96 2.96 0 0 0-.568-.055c-1.407 0-2.67 1-2.948 2.43l-7.4 38.25a3.01 3.01 0 0 0 2.375 3.516l51.196 9.923c.115.022.23.024.346.033-.726.104-1.3-.035-1.3-.035l-9.4-1.85-3.082 17.105-23.56 20.363a7.41 7.41 0 0 0-2.792 5.801 7.43 7.43 0 0 0 7.429 7.43 7.4 7.4 0 0 0 5.22-2.145l29.575-23.6C63.967 136.314 64.9 134 64.9 134l5.78-16.874c.848-2.004 4.932-1.08 4.932-1.08l22.885 8.63 7.615 29.062a7.3 7.3 0 0 0 .473 1.804h.002a7.43 7.43 0 0 0 14.33-2.776 7.34 7.34 0 0 0-.207-1.736l-5.56-31.826c-1.078-5.394-4.62-6.934-4.62-6.934L87.856 99.94c-1.387-.77-1.078-2.774-1.078-2.774l3.93-14.33 2.773 5.856s1.62 3.274 4.084 3.4l33.357.82a7.43 7.43 0 0 0 7.43-7.431c-.001-3.9-2.993-7.08-6.804-7.4zm-71.43-15.27l-1.8 5.88 9.898 1.92L48 66.7l.548-2.496 11.557-1.386zm-2.25 45.473L12.55 99.5l6.27-32.353 12.542 2.43-1.618 11.567-.64 4.406c-.005.026-.008.056-.012.082l-.018.127h.002a7.47 7.47 0 0 0-.063.951 7.43 7.43 0 0 0 7.43 7.429 7.43 7.43 0 0 0 7.429-7.429 7.24 7.24 0 0 0-.061-.937l2.9-13.223 17.413 3.374-6.27 32.356zM25.05 17.008h38.027c1.1 0 2-.896 2-2s-.9-2-2-2H25.05c-1.1 0-2 .896-2 2s.9 2 2 2zm13.03 6.017c-1.1 0-2 .896-2 2s.9 2 2 2h22.96c1.1 0 2-.896 2-2a2 2 0 0 0-2-1.99H38.08z" fill="#fff"/><path d="M87.098 32.732c8.12 0 14.945-5.542 16.9-13.05l5.467.814c.107.016.215.024.32.024a2.16 2.16 0 0 0 2.131-1.84 2.16 2.16 0 0 0-1.816-2.451l-5.54-.825a3.59 3.59 0 0 0 .004-.138c0-.182-.006-.362-.014-.542 0 0-.45-6.518-1.074-9.237S100.94 2.2 100.94 2.2C91.17-.02 81.168-.246 78.564-.246s-3.158 1.332-3.158 1.332l-3.15 4.996-.01-.003c-.076.12-.146.245-.22.368L72 6.5c-1.502 2.58-2.367 5.576-2.367 8.777a17.47 17.47 0 0 0 17.465 17.465zM125.5 72.04v-.002L98.758 69.87l-9.246-21.1s-.46-2.774-6.008-8.476-16.8-3.4-16.8-3.4L34.96 43.2c-7.86 1.85-8.168 9.863-8.168 9.863L23.7 75.1l-.64 4.406c-.005.026-.008.056-.012.082l-.018.127h.002a7.47 7.47 0 0 0-.063.951 7.43 7.43 0 0 0 7.43 7.429 7.43 7.43 0 0 0 7.429-7.429 7.24 7.24 0 0 0-.061-.937L42.5 58.16l11.557-1.386-1.8 5.88 9.898 1.92a3.01 3.01 0 0 1 2.375 3.517l-7.4 38.24a3.01 3.01 0 0 1-2.948 2.43c-.072 0-.146-.016-.22-.02-.728.104-1.3-.035-1.3-.035l-9.4-1.85L40.2 123.96l-23.56 20.363a7.41 7.41 0 0 0-2.792 5.801 7.43 7.43 0 0 0 7.429 7.43 7.4 7.4 0 0 0 5.22-2.145l29.575-23.6c1.85-1.54 2.773-3.853 2.773-3.853l5.78-16.874c.848-2.004 4.932-1.08 4.932-1.08l22.885 8.63 7.615 29.062c.082.63.242 1.234.473 1.804h.002a7.43 7.43 0 0 0 14.33-2.776 7.34 7.34 0 0 0-.207-1.736l-5.56-31.826c-1.078-5.394-4.62-6.934-4.62-6.934L81.807 93.9c-1.387-.77-1.078-2.774-1.078-2.774l3.93-14.33 2.773 5.856s1.62 3.274 4.084 3.4l33.357.82a7.43 7.43 0 0 0 .627-14.831z" fill="#3A3A3A"/><path fill="#F0C42E" d="M53.97 108.74l.222.02c1.407 0 2.67-1 2.948-2.43l7.412-38.243a3.01 3.01 0 0 0-2.375-3.517l-20.214-3.917-1.286 5.862L58.1 69.9l-6.27 32.354-45.304-8.78 6.27-32.353 12.542 2.43.832-5.95-15.178-2.942a2.97 2.97 0 0 0-.568-.055c-1.407 0-2.67 1-2.948 2.43L.055 95.268a3.01 3.01 0 0 0 2.375 3.516l51.196 9.923c.114.022.23.023.345.032z"/><path d="M59.042 8.982a2 2 0 0 1-2 1.99H19.015c-1.1 0-2-.896-2-2s.9-2 2-2h38.027c1.1.001 2 .896 2 2zm-2.038 9.998a2.01 2.01 0 0 1-2 2h-22.96c-1.1 0-2-.896-2-2a2 2 0 0 1 2-1.99h22.96c1.1 0 2 .896 2 2z" fill="#F0C52E"/></svg>