<svg xmlns="http://www.w3.org/2000/svg" width="156" height="188"><g fill="#fff"><circle cx="141.25" cy="68.877" r="14.75"/><path d="M89.113 139.544L82.04 157.42l-22.824 14.917a7.16 7.16 0 0 0-3.634 6.23 7.17 7.17 0 0 0 7.167 7.167 7.12 7.12 0 0 0 4.121-1.31l25.495-15.88c3.5-2 4.125-5.125 4.125-5.125l4.875-16-5.75-2.625c-5.75-2.625-6.5-5.25-6.5-5.25zm50.207 1.918s-1.158-3.834-4.58-5.167-18.087-7.75-18.087-7.75l15.416-25.584s3.834-9-.333-13.417-13.75-9.75-13.75-9.75h-7.52l15.8-26.8c3.354-5.686 1.443-13.08-4.242-16.432L72.633 7.447c-5.686-3.352-13.08-1.442-16.43 4.244L9.144 91.52c-3.35 5.685-1.442 13.08 4.244 16.432l49.4 29.113c5.686 3.352 13.08 1.44 16.432-4.242l22.934-38.903h8.096l-14.75 26.2s-5.134 9.214-.334 14.25c4.2 4.416 12.667 6.916 12.667 6.916l17.25 6.5 5.1 31.3c.55 3.413 3.5 6.023 7.067 6.023a7.17 7.17 0 0 0 7.166-7.167 7.39 7.39 0 0 0-.028-.56l.028-.004-5.095-35.915zM17.958 100.198c-1.4-.826-1.887-2.708-1.06-4.108l47.06-79.83c.826-1.4 2.707-1.888 4.107-1.062L79.585 22 29.48 107l-11.522-6.8zm53.498 28.054c-.826 1.4-2.707 1.887-4.107 1.06L37.233 111.56 87.34 26.563l30.113 17.753c1.402.826 1.887 2.707 1.062 4.107l-18.493 31.372H91.24L71.323 94.222a6.75 6.75 0 0 0-1.23.9l-.03.022.002.003a7.14 7.14 0 0 0-2.358 5.304 7.17 7.17 0 0 0 7.167 7.167 7.12 7.12 0 0 0 4.149-1.331l.002.003.07-.058a6.87 6.87 0 0 0 .524-.423l9.66-7.784-17.823 30.236z"/></g><path fill="#F0C42E" d="M49.22 5.943L2.16 85.772c-3.36 5.685-1.44 13.08 4.245 16.432l49.4 29.113c5.686 3.352 13.08 1.44 16.432-4.242l47.057-79.83c3.354-5.686 1.443-13.08-4.242-16.432L65.65 1.7a12.04 12.04 0 0 0-16.431 4.243zm-39.305 84.4l47.06-79.83c.826-1.4 2.707-1.888 4.107-1.062l11.52 6.792-50.105 84.998-11.522-6.8c-1.4-.826-1.886-2.708-1.06-4.108zM111.53 42.676l-47.06 79.83c-.826 1.4-2.707 1.887-4.107 1.06L30.25 105.812l50.106-84.996L110.47 38.57c1.403.825 1.887 2.706 1.063 4.107z"/><g fill="#3A3A3A"><circle cx="135.25" cy="63.083" r="14.75"/><path d="M81.875 133.75L74.8 151.625l-22.825 14.917a7.16 7.16 0 0 0-3.634 6.23 7.17 7.17 0 0 0 7.167 7.167 7.12 7.12 0 0 0 4.121-1.31l25.495-15.88c3.5-2 4.125-5.125 4.125-5.125l4.875-16-5.75-2.625c-5.75-2.625-6.5-5.25-6.5-5.25zm50.208 1.918s-1.158-3.834-4.58-5.167-18.087-7.75-18.087-7.75l15.416-25.584s3.834-9-.333-13.417S110.75 74 110.75 74H84L64.085 88.427a7.21 7.21 0 0 0-1.23.891l-.03.022.002.003a7.14 7.14 0 0 0-2.358 5.303 7.17 7.17 0 0 0 7.167 7.167 7.12 7.12 0 0 0 4.149-1.331l.002.003.07-.058 15.268-12.304H103l-14.75 26.2s-5.134 9.214-.334 14.25c4.2 4.416 12.667 6.916 12.667 6.916l17.25 6.5 5.1 31.3c.55 3.413 3.5 6.023 7.067 6.023a7.17 7.17 0 0 0 7.166-7.167 7.39 7.39 0 0 0-.028-.56l.028-.004-5.093-35.913z"/></g></svg>