<svg xmlns="http://www.w3.org/2000/svg" width="32" height="32"><path d="M20.916 16a4.94 4.94 0 0 1-4.938 4.938A4.94 4.94 0 0 1 11.039 16a4.92 4.92 0 0 1 .138-1.14h-.897v6.838h11.396V14.86h-.897c.086.367.137.746.137 1.14zm-4.938 2.66c1.466 0 2.66-1.193 2.66-2.66s-1.193-2.66-2.66-2.66-2.66 1.193-2.66 2.66 1.192 2.66 2.66 2.66zm2.66-8.358h3.04v3.04h-3.04zM16 0C7.164 0 0 7.164 0 16s7.164 16 16 16 16-7.163 16-16S24.837 0 16 0zm7.955 21.698c0 1.254-1.025 2.28-2.28 2.28H10.28A2.29 2.29 0 0 1 8 21.698V10.302a2.29 2.29 0 0 1 2.28-2.28h11.396a2.29 2.29 0 0 1 2.28 2.28v11.396z" fill="#fff"/></svg>