<svg xmlns="http://www.w3.org/2000/svg" width="97" height="55"><path d="M84.13 32.64V20.003c0-1.3 1.045-2.37 2.335-2.37l8.326 1.58V11.02c0-2.355-1.708-3.43-4.202-4.265L67.403.175c1.616 1.4 1.9 2.04 1.9 4.396v45.2c0 2.356-.45 4.066-1.967 5.2L90.6 47.925c2.4-.833 4.202-4.216 4.202-6.572V33.44l-8.326 1.567c-1.3.002-2.335-1.06-2.335-2.368zm11-11.66l-7.598-1.444c-1.008 0-1.824.83-1.824 1.85v9.868c0 1.023.816 1.852 1.824 1.852l7.598-1.43c1.154-.42 1.824-.83 1.824-1.852V22.83c0-1.022-.766-1.507-1.824-1.85zM67.17 4.483c0-5.08-4.232-4.46-4.232-4.46l-60.1 5.12c-2.994.41-2.837 4.39-2.837 4.39L0 45.812c0 3.743 2.6 3.753 2.6 3.753l16.477 1.403L27.212 39.3s1.1-1.828 2.505-1.828 2.432 1.86 2.432 1.86l9.06 13.52s18.895 1.9 22.52 1.9 3.44-5.024 3.44-5.024V4.483zm-54.188 32.7c-3.698 0-6.696-4.6-6.696-10.275s2.998-10.275 6.696-10.275 6.696 4.6 6.696 10.275-2.998 10.275-6.696 10.275zM49.14 38.62c-4.662 0-8.44-5.24-8.44-11.7s3.78-11.702 8.44-11.702 8.442 5.24 8.442 11.702-3.78 11.7-8.442 11.7z" fill="#363636"/></svg>