<svg xmlns="http://www.w3.org/2000/svg" width="107" height="65"><path d="M98.967 4.074c.752 1.44 1.2 3.08 1.2 4.818v21.102c0 4.616-3.092 8.527-7.246 9.9-1.325 3.987-3.778 7.854-8.05 10.432-8.676 5.23-31.124 4.837-31.198 4.837s-22.513.395-31.2-4.837c-4.216-2.545-6.708-6.347-8.042-10.28-4.418-1.2-7.756-5.25-7.756-10.053v-21.1c0-1.688.427-3.282 1.14-4.693C4.17 5.1 0 6.918 0 10.434v29.983C0 50.668 11.84 64.85 53.657 64.85s53.657-14.182 53.657-24.433V10.434c-.001-3.684-4.576-5.494-8.347-6.36zM20.56 38.46h65.523a10.08 10.08 0 0 0 10.074-10.077V9.935A10.08 10.08 0 0 0 86.084-.14H20.56A10.08 10.08 0 0 0 10.486 9.935v18.447a10.08 10.08 0 0 0 10.075 10.077zm63.134-29a1.57 1.57 0 0 1 1.569 1.57 1.57 1.57 0 0 1-1.569 1.569 1.57 1.57 0 0 1-1.568-1.569 1.57 1.57 0 0 1 1.568-1.57zm0 4.04a1.57 1.57 0 0 1 1.569 1.568 1.57 1.57 0 0 1-1.569 1.569 1.57 1.57 0 0 1-1.568-1.569 1.57 1.57 0 0 1 1.568-1.568zm0 4.04a1.57 1.57 0 0 1 1.569 1.569 1.57 1.57 0 0 1-1.569 1.569 1.57 1.57 0 0 1-1.568-1.569 1.57 1.57 0 0 1 1.568-1.569zm0 3.827a1.57 1.57 0 0 1 1.569 1.569 1.57 1.57 0 0 1-1.569 1.568c-.867 0-1.568-.7-1.568-1.568a1.57 1.57 0 0 1 1.568-1.569zm0 4.04a1.57 1.57 0 0 1 1.569 1.569 1.57 1.57 0 0 1-1.569 1.568 1.57 1.57 0 0 1-1.568-1.568 1.57 1.57 0 0 1 1.568-1.569zm-4.04-15.944a1.57 1.57 0 0 1 1.568 1.57 1.57 1.57 0 0 1-1.568 1.569 1.57 1.57 0 0 1-1.568-1.569 1.57 1.57 0 0 1 1.568-1.57zm0 15.944a1.57 1.57 0 0 1 1.568 1.569 1.57 1.57 0 0 1-1.568 1.568 1.57 1.57 0 0 1-1.568-1.568 1.57 1.57 0 0 1 1.568-1.569zM75.62 9.468a1.57 1.57 0 0 1 1.568 1.57 1.57 1.57 0 0 1-1.568 1.569 1.57 1.57 0 0 1-1.569-1.569 1.57 1.57 0 0 1 1.569-1.57zm0 4.04a1.57 1.57 0 0 1 1.568 1.568 1.57 1.57 0 0 1-1.568 1.569 1.57 1.57 0 0 1-1.569-1.569 1.57 1.57 0 0 1 1.569-1.568zm0 4.04a1.57 1.57 0 0 1 1.568 1.569 1.57 1.57 0 0 1-1.568 1.569 1.57 1.57 0 0 1-1.569-1.569 1.57 1.57 0 0 1 1.569-1.569zm0 3.827a1.57 1.57 0 0 1 1.568 1.569 1.57 1.57 0 0 1-1.568 1.568 1.57 1.57 0 0 1-1.569-1.568 1.57 1.57 0 0 1 1.569-1.569zm0 4.04a1.57 1.57 0 0 1 1.568 1.569 1.57 1.57 0 0 1-1.568 1.568 1.57 1.57 0 0 1-1.569-1.568 1.57 1.57 0 0 1 1.569-1.569zM67.965 9.468a1.57 1.57 0 0 1 1.568 1.57 1.57 1.57 0 0 1-1.568 1.569 1.57 1.57 0 0 1-1.568-1.569 1.57 1.57 0 0 1 1.568-1.57zm0 8.078a1.57 1.57 0 0 1 1.568 1.569 1.57 1.57 0 0 1-1.568 1.569 1.57 1.57 0 0 1-1.568-1.569 1.57 1.57 0 0 1 1.568-1.569zm0 3.88c.867 0 1.568.7 1.568 1.568a1.57 1.57 0 0 1-1.568 1.569 1.57 1.57 0 0 1-1.568-1.569 1.57 1.57 0 0 1 1.568-1.568zm0 3.985a1.57 1.57 0 0 1 1.568 1.569 1.57 1.57 0 0 1-1.568 1.568 1.57 1.57 0 0 1-1.568-1.568 1.57 1.57 0 0 1 1.568-1.569zm-4.04-15.944a1.57 1.57 0 0 1 1.57 1.57 1.57 1.57 0 0 1-1.57 1.569 1.57 1.57 0 0 1-1.569-1.569 1.57 1.57 0 0 1 1.569-1.57zm0 8.078a1.57 1.57 0 0 1 1.57 1.569 1.57 1.57 0 0 1-1.57 1.569 1.57 1.57 0 0 1-1.569-1.569 1.57 1.57 0 0 1 1.569-1.569zm0 7.866a1.57 1.57 0 0 1 1.57 1.569 1.57 1.57 0 0 1-1.57 1.568 1.57 1.57 0 0 1-1.569-1.568 1.57 1.57 0 0 1 1.569-1.569zM59.888 9.468a1.57 1.57 0 0 1 1.569 1.57 1.57 1.57 0 0 1-1.569 1.569 1.57 1.57 0 0 1-1.568-1.569c-.001-.868.7-1.57 1.568-1.57zm0 4.04a1.57 1.57 0 0 1 1.569 1.568 1.57 1.57 0 0 1-1.569 1.569 1.57 1.57 0 0 1-1.568-1.569 1.57 1.57 0 0 1 1.568-1.568zm0 4.04a1.57 1.57 0 0 1 1.569 1.569 1.57 1.57 0 0 1-1.569 1.569 1.57 1.57 0 0 1-1.568-1.569 1.57 1.57 0 0 1 1.568-1.57zm0 7.866a1.57 1.57 0 0 1 1.569 1.569 1.57 1.57 0 0 1-1.569 1.568 1.57 1.57 0 0 1-1.568-1.568c-.001-.867.7-1.57 1.568-1.57zm-8.3-15.944a1.57 1.57 0 0 1 1.569 1.57 1.57 1.57 0 0 1-1.569 1.569 1.57 1.57 0 0 1-1.568-1.569c-.001-.868.7-1.57 1.568-1.57zm0 4.04a1.57 1.57 0 0 1 1.569 1.568 1.57 1.57 0 0 1-1.569 1.569 1.57 1.57 0 0 1-1.568-1.569 1.57 1.57 0 0 1 1.568-1.568zm0 4.04a1.57 1.57 0 0 1 1.569 1.569 1.57 1.57 0 0 1-1.569 1.569 1.57 1.57 0 0 1-1.568-1.569 1.57 1.57 0 0 1 1.568-1.57zm0 3.88a1.57 1.57 0 0 1 1.569 1.568 1.57 1.57 0 0 1-1.569 1.569 1.57 1.57 0 0 1-1.568-1.569c-.001-.867.7-1.568 1.568-1.568zm0 3.985a1.57 1.57 0 0 1 1.569 1.569 1.57 1.57 0 0 1-1.569 1.568 1.57 1.57 0 0 1-1.568-1.568c-.001-.867.7-1.57 1.568-1.57zM47.548 13.5a1.57 1.57 0 0 1 1.568 1.568 1.57 1.57 0 0 1-1.568 1.569 1.57 1.57 0 0 1-1.569-1.569 1.57 1.57 0 0 1 1.569-1.568zm-8.502-.212a1.57 1.57 0 1 1-1.571 1.568 1.57 1.57 0 0 1 1.571-1.568zm0 4.038a1.57 1.57 0 0 1 0 3.14 1.57 1.57 0 1 1 0-3.14zm-4.04-8.078a1.57 1.57 0 0 1 1.568 1.57 1.57 1.57 0 0 1-1.568 1.568 1.57 1.57 0 0 1-1.569-1.568 1.57 1.57 0 0 1 1.569-1.57zm0 4.04a1.57 1.57 0 0 1 1.568 1.568 1.57 1.57 0 0 1-1.568 1.569 1.57 1.57 0 0 1-1.569-1.569 1.57 1.57 0 0 1 1.569-1.568zm0 4.038a1.57 1.57 0 0 1 0 3.14 1.57 1.57 0 0 1 0-3.14zm0 4.04a1.57 1.57 0 0 1 1.568 1.569 1.57 1.57 0 0 1-1.568 1.568 1.57 1.57 0 0 1-1.569-1.568 1.57 1.57 0 0 1 1.569-1.569zm-4.254-8.078a1.57 1.57 0 0 1 1.569 1.568 1.57 1.57 0 0 1-1.569 1.569 1.57 1.57 0 0 1-1.568-1.569 1.57 1.57 0 0 1 1.568-1.568zm0 4.038a1.57 1.57 0 0 1 0 3.14 1.57 1.57 0 0 1 0-3.14zm0 4.04a1.57 1.57 0 0 1 1.569 1.569 1.57 1.57 0 0 1-1.569 1.568c-.867 0-1.568-.7-1.568-1.568a1.57 1.57 0 0 1 1.568-1.569zm0 4.04a1.57 1.57 0 0 1 1.569 1.569 1.57 1.57 0 0 1-1.569 1.568 1.57 1.57 0 0 1-1.568-1.568 1.57 1.57 0 0 1 1.568-1.569zM26.3 9.255a1.57 1.57 0 1 1-1.569 1.57 1.57 1.57 0 0 1 1.569-1.57zm0 4.04a1.57 1.57 0 1 1-1.569 1.568 1.57 1.57 0 0 1 1.569-1.568zm0 4.038a1.57 1.57 0 1 1 0 3.14 1.57 1.57 0 0 1 0-3.14zm0 4.04a1.57 1.57 0 1 1-1.569 1.569 1.57 1.57 0 0 1 1.569-1.569zm-4.037-8.078a1.57 1.57 0 0 1 1.569 1.568 1.57 1.57 0 0 1-1.569 1.569 1.57 1.57 0 0 1-1.569-1.569 1.57 1.57 0 0 1 1.569-1.568zm0 4.038a1.57 1.57 0 0 1 0 3.14 1.57 1.57 0 0 1 0-3.14z" fill="#363636"/></svg>