<svg xmlns="http://www.w3.org/2000/svg" width="56" height="98"><path d="M54.494 32.197H52.98v-4.64c0-5.052-4.087-9.186-9.082-9.186H9.082C4.086 18.372 0 22.505 0 27.557v42.868C0 75.477 4.087 79.6 9.083 79.6h34.815c4.995 0 9.082-4.133 9.082-9.185V67h1.515c.415 0 .757-.344.757-.764v-13.78c0-.42-.342-.766-.757-.766H52.98v-8.788h1.515c.832 0 1.514-.688 1.514-1.53v-7.654a1.53 1.53 0 0 0-1.515-1.531zm-20.412-3.1c2.926 0 5.3 2.398 5.3 5.358s-2.373 5.358-5.3 5.358-5.298-2.398-5.298-5.358 2.372-5.358 5.298-5.358zm-15.137 0c2.925 0 5.298 2.398 5.298 5.358s-2.373 5.358-5.298 5.358-5.298-2.398-5.298-5.358 2.372-5.358 5.298-5.358zm-13.648 20.3c0-2.96 2.37-5.358 5.298-5.358s5.298 2.4 5.298 5.358-2.373 5.358-5.298 5.358-5.298-2.4-5.298-5.358zm13.648 19.497c-2.926 0-5.298-2.398-5.298-5.358s2.372-5.358 5.298-5.358 5.298 2.398 5.298 5.358-2.373 5.358-5.298 5.358zm1.5-19.903c0-3.382 2.7-6.124 6.055-6.124s6.055 2.742 6.055 6.124-2.7 6.124-6.055 6.124-6.055-2.742-6.055-6.124zm13.647 19.903c-2.926 0-5.298-2.398-5.298-5.358s2.372-5.358 5.298-5.358 5.3 2.398 5.3 5.358-2.373 5.358-5.3 5.358zm8.302-14.138c-2.927 0-5.298-2.4-5.298-5.358s2.37-5.358 5.298-5.358 5.298 2.4 5.298 5.358-2.372 5.358-5.298 5.358zM9.646 15.3h33.687a1.28 1.28 0 0 0 1.306-1.514L43.023 3.028C42.77 1.362 41.2 0 39.506 0H13.474c-1.686 0-3.268 1.362-3.517 3.028L8.342 13.795a1.28 1.28 0 0 0 1.304 1.515zm33.687 67.37H9.646a1.28 1.28 0 0 0-1.304 1.516l1.615 10.767c.25 1.666 1.832 3.028 3.516 3.028h26.032c1.684 0 3.266-1.362 3.517-3.026l1.615-10.77a1.28 1.28 0 0 0-1.304-1.516z" fill="#363636"/></svg>