<svg xmlns="http://www.w3.org/2000/svg" width="132" height="69"><path d="M12.052.258C6.507.745 1.838 1.85.575 2.93c-.723.616-.723.616-.232 1.156.645.72 3.713 1.645 7.248 2.236 3.998.668 12.5.693 13.723.05 1.212-.668 1.624-1.414 1.624-2.98 0-1.62-.62-2.416-2.218-2.853-1.446-.385-5.78-.54-8.668-.28zm13.722.23c-.13.283-.258 2.108-.258 4.112 0 4.06.155 3.778-2.192 3.933l-1.03.077-.258 5.088-1.187.283c-2.58.668-4 2.595-3.792 5.294.128 1.927 1.03 3.34 2.58 4.087 1.1.513 1.47.538 11.246.538 5.545 0 10.137.08 10.2.18.05.128-1.1 9.407-2.58 20.64l-2.7 21.666c-.05 1.617.826 2.62 2.348 2.62 1.237 0 2.012-.642 2.32-1.9.13-.514 1.496-10.333 3.018-21.82l2.94-20.87c.103 0 1.083 1.413 2.192 3.135 2.94 4.626 2.4 4.317 7.635 4.317h4.358v5.63l-5.133.077c-4.72.077-5.2.127-5.88.615-1.573 1.157-1.625 1.415-1.625 10.977 0 9.534.026 9.792 1.522 11.05l.85.695h31.365l.85-.695c1.496-1.258 1.52-1.516 1.52-11.05 0-9.562-.05-9.82-1.623-10.977-.67-.488-1.16-.538-5.882-.615L71.43 37.5v-5.63h4.36c5.234 0 4.693.3 7.634-4.317 1.1-1.723 2.1-3.135 2.193-3.135.076 0 1.42 9.406 2.94 20.87l3.02 21.82c.3 1.26 1.082 1.9 2.32 1.9 1.52 0 2.4-1.004 2.347-2.62-.025-.67-1.264-10.436-2.7-21.666l-2.578-20.64c.05-.102 4.642-.18 10.2-.18 9.775 0 10.136-.025 11.244-.538 1.548-.746 2.45-2.16 2.58-4.087.207-2.7-1.2-4.626-3.8-5.294L110 13.7l-.256-5.088-1.032-.077c-2.347-.155-2.193.128-2.193-3.933 0-2.004-.128-3.83-.257-4.112-.206-.36-.543-.488-1.367-.488-.62 0-1.238.128-1.42.3-.206.206-.3 1.465-.3 3.932s-.103 3.727-.3 3.932c-.18.18-.9.308-1.65.308-1.626 0-1.65.052-1.65 3.1v2.287H32.48V11.6c0-3.058-.025-3.1-1.65-3.1-.748 0-1.47-.128-1.65-.308-.208-.205-.3-1.465-.3-3.932S28.767.514 28.56.3c-.18-.18-.8-.3-1.42-.3-.825 0-1.16.128-1.367.488zm42.843 40.12c2.9.898 5.392 3.393 6.166 6.168.44 1.543.3 4.216-.284 5.783-.696 1.875-2.685 4-4.565 4.936-1.3.642-1.754.72-3.92.72s-2.63-.077-3.92-.72c-1.884-.926-3.87-3.06-4.566-4.936-.593-1.567-.723-4.24-.284-5.783.748-2.724 3.25-5.27 6.06-6.168 2.012-.643 3.3-.643 5.313 0zm-4.823 3.83c-2.037.926-3.507 3.65-3.07 5.73.774 3.677 4.823 5.553 7.996 3.702a5.29 5.29 0 0 0 2.45-5.783c-.568-2.4-2.734-4.138-5.16-4.138-.646 0-1.626.23-2.22.488zM36.092.154c-3.92.668-4.513 1.13-4.513 3.444 0 1.825.464 2.416 2.268 2.956 1.55.462 7.172.514 10.5.128 6.86-.822 11.322-2.544 9.7-3.752-1.265-.9-4.902-1.876-9.054-2.4-2.476-.308-7.996-.54-8.9-.386zm53.392.104c-6.32.6-11.864 2.08-11.864 3.186 0 1.722 7.84 3.47 15.63 3.496 5.804 0 7.196-.642 7.196-3.34 0-1.824-.62-2.622-2.373-3.084-1.65-.412-5.675-.514-8.6-.256zm23.292.025c-1.78.23-3.02.77-3.43 1.5-.387.77-.3 2.904.154 3.572.928 1.3 1.652 1.465 7.068 1.465 3.66 0 5.802-.13 7.866-.488 3.534-.6 6.604-1.517 7.248-2.236.5-.54.5-.54-.232-1.156C130.1 1.8 125.492.745 119.534.258c-3.482-.283-4.488-.283-6.758.025z" fill="#363636"/></svg>