<svg xmlns="http://www.w3.org/2000/svg" width="71" height="87" fill="#363636"><path d="M53.35 1.5c0-.736-.578-1.5-1.3-1.5H9.053c-.733 0-1.38.754-1.38 1.5v3.522H53.35V1.5zm.852 80.3h-9.597V71.426h-6.958v2.507H18.774c-.537-1.254-1.757-2.148-3.18-2.148H3.56C1.642 71.784 0 73.387 0 75.3v3.018c0 1.924 1.642 3.48 3.56 3.48h12.035c1.5 0 2.792-.896 3.27-2.326H37.65v2.326h-9.52c-.533 0-1 .437-1 .972v3.172c0 .535.478 1.048 1 1.048h26.072c.533 0 .93-.513.93-1.048V82.78c0-.535-.397-.97-.93-.97zm6.464-69.4c-.86-2.937-3.567-5.05-6.77-5.05H7.148C3.25 7.34 0 10.45 0 14.36v46.9c0 3.912 3.25 7.12 7.148 7.12h46.747c3.898 0 7.126-3.2 7.126-7.12V50.915c6.066-4.204 10-11.2 10-19.164-.001-8.08-4.132-15.18-10.356-19.36zM12.238 62.15a5.91 5.91 0 0 1-5.9-5.92c0-3.27 2.642-5.922 5.9-5.922s5.902 2.652 5.902 5.922-2.643 5.92-5.902 5.92zm5.96-32.605a1.42 1.42 0 0 1-1.418 1.422H7.84a1.42 1.42 0 0 1-1.418-1.422v-14.16a1.42 1.42 0 0 1 1.418-1.423h8.94a1.42 1.42 0 0 1 1.418 1.423v14.16zM47.76 51.857c-11.076 0-20.057-9-20.057-20.123S36.684 11.6 47.76 11.6s20.058 9 20.058 20.124-8.98 20.123-20.058 20.123z"/><ellipse cx="47.762" cy="31.735" rx="12.188" ry="12.229"/><circle cx="31.562" cy="31.736" r="1.435"/><circle cx="63.963" cy="31.736" r="1.435"/><circle cx="39.109" cy="17.994" r="1.435"/><ellipse cx="56.415" cy="45.476" rx="1.43" ry="1.436"/><circle cx="55.697" cy="17.565" r="1.435"/><circle cx="39.828" cy="45.906" r="1.435"/></svg>