<svg xmlns="http://www.w3.org/2000/svg" width="32" height="32"><path fill="#fff" d="M16 0C7.164 0 0 7.164 0 16s7.164 16 16 16 16-7.163 16-16S24.837 0 16 0zm7.944 12.81c-.25 6.516-3.463 10.832-10.992 10.702h-.486c-.447 0-4.543-.443-5.344-1.823 2.48.2 4.247-.406 5.12-1.136-1.048-.29-2.923-.46-3.25-2.848.384.104.618.22 1.3.113-1.307-.824-2.758-1.52-2.68-3.643.31.317 1.164.518 1.46.457-.768-.233-2.15-3.244-.974-4.78 1.984 1.8 4.075 3.482 7.804 3.643.227-2.214 1.24-3.7 3.168-4.325 1.84-.48 3.255.26 3.9 1.138l2.193-.685c-.004.833-.57 1.463-.935 1.71.747.165 1.423-.475 1.423-.475-.184.963-1.094 1.725-1.707 1.954z"/></svg>